{
  "source": "C:\\Users\\Peter\\Desktop\\stuff\\MIUN\\quantitative_research\\video_compression\\videos\\BVI-HD\\BVI-HD_CDVL_videos\\ORIG\\BallUnderWater_1920x1080_60fps.mp4",
  "output": "C:\\Users\\Peter\\Desktop\\stuff\\MIUN\\quantitative_research\\video_compression\\compressed_videos\\BVI-HD\\vp9\\1.5\\BallUnderWater_1920x1080_60fps_vp9.webm",
  "codec": "vp9",
  "ok": "Input #0, mov,mp4,m4a,3gp,3g2,mj2, from 'C:\\Users\\Peter\\Desktop\\stuff\\MIUN\\quantitative_research\\video_compression\\videos\\BVI-HD\\BVI-HD_CDVL_videos\\ORIG\\BallUnderWater_1920x1080_60fps.mp4':\n  Metadata:\n    major_brand     : isom\n    minor_version   : 512\n    compatible_brands: isomiso2avc1mp41\n    encoder         : Lavf54.28.101\n  Duration: 00:00:05.00, start: 0.000000, bitrate: 212030 kb/s\n  Stream #0:0[0x1](und): Video: h264 (High 4:4:4 Predictive) (avc1 / 0x31637661), yuv420p(progressive), 1920x1080, 212025 kb/s, 60 fps, 60 tbr, 60 tbn (default)\n    Metadata:\n      handler_name    : VideoHandler\n      vendor_id       : [0][0][0][0]\n[out#0/webm @ 0000023c40819240] Codec AVOption b:a (set bitrate (in bits/s)) has not been used for any stream. The most likely reason is either wrong type (e.g. a video option with no video streams) or that it is a private option of some decoder which was not actually used for any stream.\nStream mapping:\n  Stream #0:0 -> #0:0 (h264 (native) -> vp9 (libvpx-vp9))\nPress [q] to stop, [?] for help\n[libvpx-vp9 @ 0000023c40fb4840] v1.15.2-100-g40561f514\nOutput #0, webm, to 'C:\\Users\\Peter\\Desktop\\stuff\\MIUN\\quantitative_research\\video_compression\\compressed_videos\\BVI-HD\\vp9\\1.5\\BallUnderWater_1920x1080_60fps_vp9.webm':\n  Metadata:\n    major_brand     : isom\n    minor_version   : 512\n    compatible_brands: isomiso2avc1mp41\n    encoder         : Lavf62.3.100\n  Stream #0:0(und): Video: vp9, yuv420p(tv, progressive), 1920x1080, q=2-31, 1500 kb/s, 60 fps, 1k tbn (default)\n    Metadata:\n      encoder         : Lavc62.11.100 libvpx-vp9\n      handler_name    : VideoHandler\n      vendor_id       : [0][0][0][0]\n    Side data:\n      cpb: bitrate max/min/avg: 0/0/0 buffer size: 1500000 vbv_delay: N/A\nframe=    0 fps=0.0 q=0.0 size=       0KiB time=N/A bitrate=N/A speed=N/A elapsed=0:00:00.51    \nframe=    0 fps=0.0 q=0.0 size=       0KiB time=N/A bitrate=N/A speed=N/A elapsed=0:00:01.27    \nframe=    2 fps=1.0 q=63.0 size=       1KiB time=00:00:00.03 bitrate= 151.9kbits/s speed=0.0172x elapsed=0:00:01.94    \nframe=    4 fps=1.4 q=63.0 size=       1KiB time=00:00:00.05 bitrate= 101.3kbits/s speed=0.018x elapsed=0:00:02.77    \nframe=    7 fps=2.0 q=57.0 size=       1KiB time=00:00:00.11 bitrate=  43.4kbits/s speed=0.0332x elapsed=0:00:03.50    \nframe=   11 fps=2.7 q=55.0 size=       1KiB time=00:00:00.16 bitrate=  30.4kbits/s speed=0.0405x elapsed=0:00:04.11    \nframe=   13 fps=2.6 q=48.0 size=       1KiB time=00:00:00.21 bitrate=  23.4kbits/s speed=0.0437x elapsed=0:00:04.95    \nframe=   17 fps=3.0 q=55.0 size=       1KiB time=00:00:00.28 bitrate=  17.9kbits/s speed=0.0507x elapsed=0:00:05.58    \nframe=   20 fps=3.2 q=55.0 size=       1KiB time=00:00:00.31 bitrate=  16.0kbits/s speed=0.0514x elapsed=0:00:06.16    \nframe=   23 fps=3.3 q=55.0 size=       1KiB time=00:00:00.38 bitrate=  13.2kbits/s speed=0.0557x elapsed=0:00:06.87    \nframe=   25 fps=3.2 q=40.0 size=       1KiB time=00:00:00.40 bitrate=  12.7kbits/s speed=0.0519x elapsed=0:00:07.71    \nframe=   28 fps=3.2 q=56.0 size=       1KiB time=00:00:00.45 bitrate=  11.3kbits/s speed=0.0522x elapsed=0:00:08.62    \nframe=   30 fps=3.2 q=58.0 size=       1KiB time=00:00:00.50 bitrate=  10.1kbits/s speed=0.0539x elapsed=0:00:09.27    \nframe=   32 fps=3.3 q=59.0 size=       1KiB time=00:00:00.53 bitrate=   9.5kbits/s speed=0.0544x elapsed=0:00:09.80    \nframe=   35 fps=3.4 q=59.0 size=       1KiB time=00:00:00.58 bitrate=   8.7kbits/s speed=0.0565x elapsed=0:00:10.32    \nframe=   37 fps=3.4 q=45.0 size=       1KiB time=00:00:00.61 bitrate=   8.2kbits/s speed=0.0567x elapsed=0:00:10.87    \nframe=   39 fps=3.4 q=58.0 size=       1KiB time=00:00:00.65 bitrate=   7.8kbits/s speed=0.057x elapsed=0:00:11.39    \nframe=   42 fps=3.5 q=58.0 size=       1KiB time=00:00:00.68 bitrate=   7.4kbits/s speed=0.0573x elapsed=0:00:11.92    \nframe=   44 fps=3.5 q=58.0 size=       1KiB time=00:00:00.73 bitrate=   6.9kbits/s speed=0.0578x elapsed=0:00:12.68    \nframe=   46 fps=3.5 q=58.0 size=       1KiB time=00:00:00.76 bitrate=   6.6kbits/s speed=0.0578x elapsed=0:00:13.27    \nframe=   47 fps=3.4 q=57.0 size=       1KiB time=00:00:00.78 bitrate=   6.5kbits/s speed=0.0568x elapsed=0:00:13.78    \nframe=   49 fps=3.4 q=44.0 size=       1KiB time=00:00:00.80 bitrate=   6.3kbits/s speed=0.0555x elapsed=0:00:14.41    \nframe=   52 fps=3.4 q=57.0 size=       1KiB time=00:00:00.85 bitrate=   6.0kbits/s speed=0.0561x elapsed=0:00:15.15    \nframe=   54 fps=3.4 q=56.0 size=       1KiB time=00:00:00.90 bitrate=   5.6kbits/s speed=0.0568x elapsed=0:00:15.83    \nframe=   56 fps=3.4 q=56.0 size=       1KiB time=00:00:00.93 bitrate=   5.4kbits/s speed=0.057x elapsed=0:00:16.36    \nframe=   59 fps=3.5 q=55.0 size=       1KiB time=00:00:00.98 bitrate=   5.1kbits/s speed=0.0581x elapsed=0:00:16.91    \nframe=   60 fps=3.4 q=55.0 size=       1KiB time=00:00:01.00 bitrate=   5.1kbits/s speed=0.0572x elapsed=0:00:17.47    \nframe=   62 fps=3.4 q=52.0 size=       1KiB time=00:00:01.03 bitrate=   4.9kbits/s speed=0.0571x elapsed=0:00:18.09    \nframe=   63 fps=3.4 q=52.0 size=       1KiB time=00:00:01.05 bitrate=   4.8kbits/s speed=0.0564x elapsed=0:00:18.60    \nframe=   65 fps=3.4 q=52.0 size=       1KiB time=00:00:01.08 bitrate=   4.7kbits/s speed=0.0566x elapsed=0:00:19.13    \nframe=   67 fps=3.4 q=53.0 size=       1KiB time=00:00:01.11 bitrate=   4.5kbits/s speed=0.0563x elapsed=0:00:19.82    \nframe=   70 fps=3.4 q=53.0 size=       1KiB time=00:00:01.16 bitrate=   4.3kbits/s speed=0.0572x elapsed=0:00:20.39    \nframe=   72 fps=3.4 q=53.0 size=       1KiB time=00:00:01.20 bitrate=   4.2kbits/s speed=0.057x elapsed=0:00:21.04    \nframe=   74 fps=3.4 q=55.0 size=       1KiB time=00:00:01.23 bitrate=   4.1kbits/s speed=0.0569x elapsed=0:00:21.65    \nframe=   76 fps=3.4 q=54.0 size=       1KiB time=00:00:01.26 bitrate=   4.0kbits/s speed=0.057x elapsed=0:00:22.21    \nframe=   78 fps=3.4 q=54.0 size=       1KiB time=00:00:01.30 bitrate=   3.9kbits/s speed=0.0567x elapsed=0:00:22.92    \nframe=   80 fps=3.4 q=51.0 size=       1KiB time=00:00:01.33 bitrate=   3.8kbits/s speed=0.0566x elapsed=0:00:23.55    \nframe=   83 fps=3.4 q=50.0 size=       1KiB time=00:00:01.38 bitrate=   3.7kbits/s speed=0.0574x elapsed=0:00:24.11    \nframe=   86 fps=3.5 q=51.0 size=       1KiB time=00:00:01.43 bitrate=   3.5kbits/s speed=0.0576x elapsed=0:00:24.87    \nframe=   89 fps=3.5 q=53.0 size=       1KiB time=00:00:01.46 bitrate=   3.5kbits/s speed=0.0573x elapsed=0:00:25.60    \nframe=   91 fps=3.5 q=39.0 size=       1KiB time=00:00:01.50 bitrate=   3.4kbits/s speed=0.057x elapsed=0:00:26.32    \nframe=   93 fps=3.4 q=58.0 size=       1KiB time=00:00:01.55 bitrate=   3.3kbits/s speed=0.0572x elapsed=0:00:27.08    \nframe=   95 fps=3.4 q=58.0 size=       1KiB time=00:00:01.58 bitrate=   3.2kbits/s speed=0.0573x elapsed=0:00:27.62    \nframe=   98 fps=3.5 q=58.0 size=       1KiB time=00:00:01.61 bitrate=   3.1kbits/s speed=0.0572x elapsed=0:00:28.27    \nframe=  101 fps=3.5 q=57.0 size=       1KiB time=00:00:01.68 bitrate=   3.0kbits/s speed=0.058x elapsed=0:00:29.01    \nframe=  103 fps=3.5 q=41.0 size=       1KiB time=00:00:01.70 bitrate=   3.0kbits/s speed=0.0573x elapsed=0:00:29.67    \nframe=  107 fps=3.5 q=55.0 size=       1KiB time=00:00:01.76 bitrate=   2.9kbits/s speed=0.058x elapsed=0:00:30.43    \nframe=  109 fps=3.5 q=40.0 size=       1KiB time=00:00:01.81 bitrate=   2.8kbits/s speed=0.0585x elapsed=0:00:31.04    \nframe=  112 fps=3.5 q=54.0 size=       1KiB time=00:00:01.86 bitrate=   2.7kbits/s speed=0.0591x elapsed=0:00:31.60    \nframe=  116 fps=3.6 q=54.0 size=       1KiB time=00:00:01.91 bitrate=   2.6kbits/s speed=0.0596x elapsed=0:00:32.13    \nframe=  118 fps=3.6 q=53.0 size=       1KiB time=00:00:01.96 bitrate=   2.6kbits/s speed=0.0601x elapsed=0:00:32.73    \nframe=  120 fps=3.6 q=56.0 size=       1KiB time=00:00:02.00 bitrate=   2.5kbits/s speed=0.0601x elapsed=0:00:33.26    \nframe=  123 fps=3.6 q=56.0 size=       1KiB time=00:00:02.05 bitrate=   2.5kbits/s speed=0.0606x elapsed=0:00:33.84    \nframe=  127 fps=3.7 q=55.0 size=       1KiB time=00:00:02.10 bitrate=   2.4kbits/s speed=0.0609x elapsed=0:00:34.46    \nframe=  129 fps=3.7 q=40.0 size=       1KiB time=00:00:02.15 bitrate=   2.4kbits/s speed=0.061x elapsed=0:00:35.21    \nframe=  132 fps=3.7 q=57.0 size=     256KiB time=00:00:02.20 bitrate= 953.3kbits/s speed=0.0611x elapsed=0:00:35.99    \nframe=  135 fps=3.7 q=41.0 size=     256KiB time=00:00:02.25 bitrate= 932.1kbits/s speed=0.0615x elapsed=0:00:36.58    \nframe=  137 fps=3.7 q=53.0 size=     256KiB time=00:00:02.28 bitrate= 918.5kbits/s speed=0.0614x elapsed=0:00:37.17    \nframe=  140 fps=3.7 q=51.0 size=     256KiB time=00:00:02.31 bitrate= 905.2kbits/s speed=0.0614x elapsed=0:00:37.75    \nframe=  143 fps=3.7 q=50.0 size=     256KiB time=00:00:02.36 bitrate= 886.1kbits/s speed=0.0616x elapsed=0:00:38.42    \nframe=  145 fps=3.7 q=50.0 size=     256KiB time=00:00:02.41 bitrate= 867.8kbits/s speed=0.0616x elapsed=0:00:39.23    \nframe=  147 fps=3.7 q=52.0 size=     256KiB time=00:00:02.45 bitrate= 856.0kbits/s speed=0.0614x elapsed=0:00:39.90    \nframe=  151 fps=3.7 q=53.0 size=     256KiB time=00:00:02.50 bitrate= 838.9kbits/s speed=0.0617x elapsed=0:00:40.49    \nframe=  152 fps=3.7 q=38.0 size=     256KiB time=00:00:02.53 bitrate= 827.8kbits/s speed=0.0615x elapsed=0:00:41.19    \nframe=  156 fps=3.7 q=54.0 size=     256KiB time=00:00:02.60 bitrate= 806.6kbits/s speed=0.0623x elapsed=0:00:41.70    \nframe=  157 fps=3.7 q=54.0 size=     256KiB time=00:00:02.61 bitrate= 801.5kbits/s speed=0.062x elapsed=0:00:42.22    \nframe=  159 fps=3.7 q=51.0 size=     256KiB time=00:00:02.65 bitrate= 791.4kbits/s speed=0.062x elapsed=0:00:42.74    \nframe=  161 fps=3.7 q=51.0 size=     256KiB time=00:00:02.68 bitrate= 781.5kbits/s speed=0.062x elapsed=0:00:43.25    \nframe=  163 fps=3.7 q=51.0 size=     256KiB time=00:00:02.71 bitrate= 772.0kbits/s speed=0.0621x elapsed=0:00:43.77    \nframe=  165 fps=3.7 q=52.0 size=     256KiB time=00:00:02.75 bitrate= 762.6kbits/s speed=0.0621x elapsed=0:00:44.28    \nframe=  168 fps=3.7 q=51.0 size=     256KiB time=00:00:02.80 bitrate= 749.0kbits/s speed=0.0625x elapsed=0:00:44.80    \nframe=  169 fps=3.7 q=51.0 size=     256KiB time=00:00:02.81 bitrate= 744.6kbits/s speed=0.0622x elapsed=0:00:45.31    \nframe=  172 fps=3.8 q=53.0 size=     256KiB time=00:00:02.86 bitrate= 731.6kbits/s speed=0.0625x elapsed=0:00:45.83    \nframe=  174 fps=3.8 q=54.0 size=     256KiB time=00:00:02.90 bitrate= 723.2kbits/s speed=0.0626x elapsed=0:00:46.34    \nframe=  176 fps=3.8 q=39.0 size=     256KiB time=00:00:02.93 bitrate= 714.9kbits/s speed=0.0626x elapsed=0:00:46.86    \nframe=  178 fps=3.8 q=53.0 size=     256KiB time=00:00:02.96 bitrate= 706.9kbits/s speed=0.0626x elapsed=0:00:47.38    \nframe=  181 fps=3.8 q=51.0 size=     256KiB time=00:00:03.01 bitrate= 695.2kbits/s speed=0.063x elapsed=0:00:47.89    \nframe=  182 fps=3.8 q=38.0 size=     256KiB time=00:00:03.03 bitrate= 691.4kbits/s speed=0.0627x elapsed=0:00:48.41    \nframe=  184 fps=3.8 q=49.0 size=     256KiB time=00:00:03.06 bitrate= 683.9kbits/s speed=0.0627x elapsed=0:00:48.92    \nframe=  187 fps=3.8 q=50.0 size=     256KiB time=00:00:03.11 bitrate= 672.9kbits/s speed=0.063x elapsed=0:00:49.44    \nframe=  189 fps=3.8 q=50.0 size=     256KiB time=00:00:03.15 bitrate= 665.8kbits/s speed=0.063x elapsed=0:00:49.96    \nframe=  191 fps=3.8 q=51.0 size=     256KiB time=00:00:03.18 bitrate= 658.8kbits/s speed=0.0631x elapsed=0:00:50.48    \nframe=  193 fps=3.8 q=53.0 size=     256KiB time=00:00:03.21 bitrate= 652.0kbits/s speed=0.0631x elapsed=0:00:51.01    \nframe=  194 fps=3.8 q=38.0 size=     256KiB time=00:00:03.23 bitrate= 648.6kbits/s speed=0.0628x elapsed=0:00:51.51    \nframe=  197 fps=3.8 q=54.0 size=     256KiB time=00:00:03.28 bitrate= 638.7kbits/s speed=0.0631x elapsed=0:00:52.04    \nframe=  199 fps=3.8 q=55.0 size=     256KiB time=00:00:03.31 bitrate= 632.3kbits/s speed=0.0631x elapsed=0:00:52.54    \nframe=  201 fps=3.8 q=56.0 size=     256KiB time=00:00:03.35 bitrate= 626.0kbits/s speed=0.0631x elapsed=0:00:53.07    \nframe=  204 fps=3.8 q=55.0 size=     256KiB time=00:00:03.40 bitrate= 616.8kbits/s speed=0.0635x elapsed=0:00:53.57    \nframe=  205 fps=3.8 q=55.0 size=     256KiB time=00:00:03.41 bitrate= 613.8kbits/s speed=0.0632x elapsed=0:00:54.09    \nframe=  208 fps=3.8 q=55.0 size=     256KiB time=00:00:03.46 bitrate= 604.9kbits/s speed=0.0635x elapsed=0:00:54.62    \nframe=  209 fps=3.8 q=56.0 size=     256KiB time=00:00:03.48 bitrate= 602.1kbits/s speed=0.0632x elapsed=0:00:55.12    \nframe=  211 fps=3.8 q=58.0 size=     256KiB time=00:00:03.51 bitrate= 596.3kbits/s speed=0.0632x elapsed=0:00:55.64    \nframe=  213 fps=3.8 q=59.0 size=     256KiB time=00:00:03.55 bitrate= 590.7kbits/s speed=0.0632x elapsed=0:00:56.15    \nframe=  217 fps=3.8 q=59.0 size=     256KiB time=00:00:03.61 bitrate= 579.9kbits/s speed=0.0638x elapsed=0:00:56.67    \nframe=  219 fps=3.8 q=59.0 size=     256KiB time=00:00:03.65 bitrate= 574.6kbits/s speed=0.0637x elapsed=0:00:57.31    \nframe=  221 fps=3.8 q=59.0 size=     256KiB time=00:00:03.68 bitrate= 569.4kbits/s speed=0.0637x elapsed=0:00:57.86    \nframe=  223 fps=3.8 q=58.0 size=     256KiB time=00:00:03.71 bitrate= 564.3kbits/s speed=0.0637x elapsed=0:00:58.37    \nframe=  226 fps=3.8 q=54.0 size=     256KiB time=00:00:03.76 bitrate= 556.8kbits/s speed=0.0639x elapsed=0:00:58.92    \nframe=  229 fps=3.9 q=53.0 size=     256KiB time=00:00:03.81 bitrate= 549.5kbits/s speed=0.0642x elapsed=0:00:59.43    \nframe=  233 fps=3.9 q=54.0 size=     256KiB time=00:00:03.88 bitrate= 540.0kbits/s speed=0.0648x elapsed=0:00:59.95    \nframe=  235 fps=3.9 q=53.0 size=     256KiB time=00:00:03.91 bitrate= 535.4kbits/s speed=0.0648x elapsed=0:01:00.46    \nframe=  238 fps=3.9 q=56.0 size=     256KiB time=00:00:03.96 bitrate= 528.7kbits/s speed=0.065x elapsed=0:01:00.99    \nframe=  241 fps=3.9 q=55.0 size=     256KiB time=00:00:04.01 bitrate= 522.1kbits/s speed=0.0653x elapsed=0:01:01.55    \nframe=  244 fps=3.9 q=54.0 size=     256KiB time=00:00:04.06 bitrate= 515.7kbits/s speed=0.0655x elapsed=0:01:02.11    \nframe=  247 fps=3.9 q=56.0 size=     256KiB time=00:00:04.11 bitrate= 509.4kbits/s speed=0.0657x elapsed=0:01:02.63    \nframe=  250 fps=4.0 q=53.0 size=     256KiB time=00:00:04.16 bitrate= 503.3kbits/s speed=0.0659x elapsed=0:01:03.19    \nframe=  253 fps=4.0 q=53.0 size=     256KiB time=00:00:04.21 bitrate= 497.3kbits/s speed=0.0662x elapsed=0:01:03.72    \nframe=  255 fps=4.0 q=53.0 size=     256KiB time=00:00:04.25 bitrate= 493.4kbits/s speed=0.0661x elapsed=0:01:04.28    \nframe=  259 fps=4.0 q=54.0 size=     512KiB time=00:00:04.31 bitrate= 971.7kbits/s speed=0.0666x elapsed=0:01:04.79    \nframe=  262 fps=4.0 q=54.0 size=     512KiB time=00:00:04.36 bitrate= 960.5kbits/s speed=0.0669x elapsed=0:01:05.31    \nframe=  264 fps=4.0 q=54.0 size=     512KiB time=00:00:04.40 bitrate= 953.3kbits/s speed=0.0668x elapsed=0:01:05.82    \nframe=  266 fps=4.0 q=54.0 size=     512KiB time=00:00:04.43 bitrate= 946.1kbits/s speed=0.0668x elapsed=0:01:06.39    \nframe=  268 fps=4.0 q=55.0 size=     512KiB time=00:00:04.46 bitrate= 939.0kbits/s speed=0.0668x elapsed=0:01:06.90    \nframe=  271 fps=4.0 q=53.0 size=     512KiB time=00:00:04.51 bitrate= 928.6kbits/s speed=0.067x elapsed=0:01:07.42    \nframe=  273 fps=4.0 q=54.0 size=     512KiB time=00:00:04.55 bitrate= 921.8kbits/s speed=0.0669x elapsed=0:01:07.96    \nframe=  276 fps=4.0 q=54.0 size=     512KiB time=00:00:04.60 bitrate= 911.8kbits/s speed=0.0672x elapsed=0:01:08.48    \nframe=  276 fps=4.0 q=54.0 size=     512KiB time=00:00:04.60 bitrate= 911.8kbits/s speed=0.0667x elapsed=0:01:09.00    \nframe=  276 fps=4.0 q=54.0 size=     512KiB time=00:00:04.60 bitrate= 911.8kbits/s speed=0.0662x elapsed=0:01:09.52    \nframe=  276 fps=3.9 q=54.0 size=     512KiB time=00:00:04.60 bitrate= 911.8kbits/s speed=0.0657x elapsed=0:01:10.04    \nframe=  276 fps=3.9 q=54.0 size=     512KiB time=00:00:04.60 bitrate= 911.8kbits/s speed=0.0652x elapsed=0:01:10.57    \nframe=  276 fps=3.9 q=54.0 size=     512KiB time=00:00:04.60 bitrate= 911.8kbits/s speed=0.0647x elapsed=0:01:11.08    \nframe=  276 fps=3.9 q=54.0 size=     512KiB time=00:00:04.60 bitrate= 911.8kbits/s speed=0.0643x elapsed=0:01:11.59    \nframe=  276 fps=3.8 q=54.0 size=     512KiB time=00:00:04.60 bitrate= 911.8kbits/s speed=0.0638x elapsed=0:01:12.10    \nframe=  276 fps=3.8 q=54.0 size=     512KiB time=00:00:04.60 bitrate= 911.8kbits/s speed=0.0633x elapsed=0:01:12.64    \n[out#0/webm @ 0000023c40819240] video:782KiB audio:0KiB subtitle:0KiB other streams:0KiB global headers:0KiB muxing overhead: 0.352611%\nframe=  300 fps=4.1 q=53.0 Lsize=     785KiB time=00:00:05.00 bitrate=1286.4kbits/s speed=0.0688x elapsed=0:01:12.71    \n",
  "seconds": 75.36958146095276,
  "probe_out": {}
}